<svg width="640" height="760" viewBox="0 0 640 760" fill="none" xmlns="http://www.w3.org/2000/svg">
  <rect width="640" height="760" rx="40" fill="#E9EEF5"/>
  <circle cx="320" cy="240" r="148" fill="#C7D2E3"/>
  <path d="M203 629C203 536.248 278.248 461 371 461H409C501.752 461 577 536.248 577 629V760H203V629Z" fill="#1C3554"/>
  <path d="M93 634C93 527.409 179.409 441 286 441H354C460.591 441 547 527.409 547 634V760H93V634Z" fill="#294B73"/>
  <circle cx="320" cy="253" r="112" fill="#F0C7A8"/>
  <path d="M219 254C219 183.86 275.86 127 346 127H352C422.14 127 479 183.86 479 254V268H219V254Z" fill="#25374D"/>
  <path d="M225 402C260.375 435.318 296.175 452 332.4 452C368.625 452 402.775 435.318 434.85 402L458 486C425.402 520 382.035 537 327.9 537C273.765 537 231.7 520 201.705 486L225 402Z" fill="#E8B493"/>
</svg>
