<svg width="640" height="760" viewBox="0 0 640 760" fill="none" xmlns="http://www.w3.org/2000/svg">
  <rect width="640" height="760" rx="40" fill="#EEF1F6"/>
  <circle cx="320" cy="240" r="148" fill="#D5DDE8"/>
  <path d="M132 626C132 521.066 217.066 436 322 436H332C436.934 436 522 521.066 522 626V760H132V626Z" fill="#202B38"/>
  <path d="M83 650C83 535.677 175.677 443 290 443H350C464.323 443 557 535.677 557 650V760H83V650Z" fill="#314456"/>
  <circle cx="320" cy="252" r="111" fill="#E7B89A"/>
  <path d="M211 246C211 170.337 272.337 109 348 109H365C440.663 109 502 170.337 502 246V279H211V246Z" fill="#1D2330"/>
  <path d="M224 397C262.436 432.997 299.726 450.995 335.87 450.995C372.015 450.995 406.991 432.997 440.8 397L463 484.377C426.786 518.126 382.593 535 330.222 535C277.851 535 235.443 518.126 202.998 484.377L224 397Z" fill="#DFA27E"/>
</svg>
